<mxfile host="app.diagrams.net" modified="2020-12-16T09:59:07.807Z" agent="5.0 (Linux; Android 10; Mi A2 Lite) AppleWebKit/537.36 (KHTML, like Gecko) Chrome/81.0.4044.138 Mobile Safari/537.36" etag="6KTdx7kBLopymLnrR5W2" version="14.0.3" type="github">
  <diagram id="_l41gC_-QUTHXOedeptn" name="Page-1">
    <mxGraphModel dx="1950" dy="1765" grid="1" gridSize="10" guides="1" tooltips="1" connect="1" arrows="1" fold="1" page="1" pageScale="1" pageWidth="827" pageHeight="1169" math="0" shadow="0">
      <root>
        <mxCell id="0" />
        <mxCell id="1" parent="0" />
        <mxCell id="vysxgyDkq2wraAgJu6BQ-1" value="Продавец" style="shape=umlActor;verticalLabelPosition=bottom;verticalAlign=top;html=1;outlineConnect=0;" vertex="1" parent="1">
          <mxGeometry x="30" y="50" width="70" height="70" as="geometry" />
        </mxCell>
        <mxCell id="vysxgyDkq2wraAgJu6BQ-5" value="" style="rounded=1;whiteSpace=wrap;html=1;" vertex="1" parent="1">
          <mxGeometry x="150" y="50" width="120" height="60" as="geometry" />
        </mxCell>
        <mxCell id="vysxgyDkq2wraAgJu6BQ-6" value="Выбор заказа" style="text;html=1;strokeColor=none;fillColor=none;align=center;verticalAlign=middle;whiteSpace=wrap;rounded=0;" vertex="1" parent="1">
          <mxGeometry x="150" y="55" width="90" height="50" as="geometry" />
        </mxCell>
        <mxCell id="vysxgyDkq2wraAgJu6BQ-7" value="" style="rounded=1;whiteSpace=wrap;html=1;" vertex="1" parent="1">
          <mxGeometry x="293" y="50" width="120" height="60" as="geometry" />
        </mxCell>
        <mxCell id="vysxgyDkq2wraAgJu6BQ-8" value="Заказ деталей" style="text;html=1;strokeColor=none;fillColor=none;align=center;verticalAlign=middle;whiteSpace=wrap;rounded=0;" vertex="1" parent="1">
          <mxGeometry x="300" y="50" width="90" height="60" as="geometry" />
        </mxCell>
        <mxCell id="vysxgyDkq2wraAgJu6BQ-10" value="" style="rounded=1;whiteSpace=wrap;html=1;fillColor=none;gradientColor=none;" vertex="1" parent="1">
          <mxGeometry x="430" y="55" width="120" height="60" as="geometry" />
        </mxCell>
        <mxCell id="vysxgyDkq2wraAgJu6BQ-11" value="Упр_заказами" style="text;html=1;strokeColor=none;fillColor=none;align=center;verticalAlign=middle;whiteSpace=wrap;rounded=0;" vertex="1" parent="1">
          <mxGeometry x="430" y="60" width="100" height="50" as="geometry" />
        </mxCell>
        <mxCell id="vysxgyDkq2wraAgJu6BQ-12" value="" style="rounded=1;whiteSpace=wrap;html=1;fillColor=none;gradientColor=none;" vertex="1" parent="1">
          <mxGeometry x="570" y="50" width="120" height="60" as="geometry" />
        </mxCell>
        <mxCell id="vysxgyDkq2wraAgJu6BQ-13" value="Номер заказа" style="text;html=1;strokeColor=none;fillColor=none;align=center;verticalAlign=middle;whiteSpace=wrap;rounded=0;" vertex="1" parent="1">
          <mxGeometry x="580" y="50" width="90" height="60" as="geometry" />
        </mxCell>
        <mxCell id="vysxgyDkq2wraAgJu6BQ-14" value="" style="rounded=1;whiteSpace=wrap;html=1;fillColor=none;gradientColor=none;" vertex="1" parent="1">
          <mxGeometry x="700" y="55" width="120" height="60" as="geometry" />
        </mxCell>
        <mxCell id="vysxgyDkq2wraAgJu6BQ-15" value="Упр_транзакциями" style="text;html=1;strokeColor=none;fillColor=none;align=center;verticalAlign=middle;whiteSpace=wrap;rounded=0;" vertex="1" parent="1">
          <mxGeometry x="717" y="40" width="110" height="70" as="geometry" />
        </mxCell>
        <mxCell id="vysxgyDkq2wraAgJu6BQ-16" value="" style="shape=link;html=1;width=130;" edge="1" parent="1">
          <mxGeometry width="100" relative="1" as="geometry">
            <mxPoint x="120" y="160" as="sourcePoint" />
            <mxPoint x="150" y="1223.9215087890625" as="targetPoint" />
          </mxGeometry>
        </mxCell>
        <mxCell id="vysxgyDkq2wraAgJu6BQ-17" value="" style="shape=link;html=1;width=170;" edge="1" parent="1">
          <mxGeometry width="100" relative="1" as="geometry">
            <mxPoint x="440" y="140" as="sourcePoint" />
            <mxPoint x="460" y="1614.9018859863281" as="targetPoint" />
            <Array as="points">
              <mxPoint x="440" y="820" />
            </Array>
          </mxGeometry>
        </mxCell>
        <mxCell id="vysxgyDkq2wraAgJu6BQ-18" value="" style="shape=link;html=1;width=105;" edge="1" parent="1">
          <mxGeometry width="100" relative="1" as="geometry">
            <mxPoint x="690" y="120" as="sourcePoint" />
            <mxPoint x="690" y="1823.9215087890625" as="targetPoint" />
          </mxGeometry>
        </mxCell>
        <mxCell id="vysxgyDkq2wraAgJu6BQ-19" value="" style="endArrow=classic;html=1;" edge="1" parent="1">
          <mxGeometry width="50" height="50" relative="1" as="geometry">
            <mxPoint x="40" y="270" as="sourcePoint" />
            <mxPoint x="180" y="270" as="targetPoint" />
          </mxGeometry>
        </mxCell>
        <mxCell id="vysxgyDkq2wraAgJu6BQ-20" value="Создать" style="text;html=1;strokeColor=none;fillColor=none;align=center;verticalAlign=middle;whiteSpace=wrap;rounded=0;" vertex="1" parent="1">
          <mxGeometry x="90" y="240" width="40" height="20" as="geometry" />
        </mxCell>
        <mxCell id="vysxgyDkq2wraAgJu6BQ-21" value="" style="endArrow=classic;html=1;" edge="1" parent="1">
          <mxGeometry width="50" height="50" relative="1" as="geometry">
            <mxPoint x="200" y="330" as="sourcePoint" />
            <mxPoint x="350" y="340.62744140625" as="targetPoint" />
          </mxGeometry>
        </mxCell>
        <mxCell id="vysxgyDkq2wraAgJu6BQ-23" value="Открыть" style="text;html=1;strokeColor=none;fillColor=none;align=center;verticalAlign=middle;whiteSpace=wrap;rounded=0;" vertex="1" parent="1">
          <mxGeometry x="253" y="310" width="40" height="20" as="geometry" />
        </mxCell>
        <mxCell id="vysxgyDkq2wraAgJu6BQ-24" value="" style="endArrow=classic;html=1;" edge="1" parent="1">
          <mxGeometry width="50" height="50" relative="1" as="geometry">
            <mxPoint x="360" y="401" as="sourcePoint" />
            <mxPoint x="640" y="400.62744140625" as="targetPoint" />
          </mxGeometry>
        </mxCell>
        <mxCell id="vysxgyDkq2wraAgJu6BQ-25" value="Ввести номер заказа заказчика и число заказываемых предметов" style="text;html=1;strokeColor=none;fillColor=none;align=center;verticalAlign=middle;whiteSpace=wrap;rounded=0;" vertex="1" parent="1">
          <mxGeometry x="390" y="370" width="240" height="20" as="geometry" />
        </mxCell>
        <mxCell id="vysxgyDkq2wraAgJu6BQ-26" value="" style="endArrow=classic;html=1;" edge="1" parent="1">
          <mxGeometry width="50" height="50" relative="1" as="geometry">
            <mxPoint x="70" y="480" as="sourcePoint" />
            <mxPoint x="350" y="480" as="targetPoint" />
          </mxGeometry>
        </mxCell>
        <mxCell id="vysxgyDkq2wraAgJu6BQ-27" value="Сохранить заказ" style="text;html=1;strokeColor=none;fillColor=none;align=center;verticalAlign=middle;whiteSpace=wrap;rounded=0;" vertex="1" parent="1">
          <mxGeometry x="90" y="450" width="240" height="20" as="geometry" />
        </mxCell>
        <mxCell id="vysxgyDkq2wraAgJu6BQ-29" value="" style="endArrow=classic;html=1;" edge="1" parent="1">
          <mxGeometry width="50" height="50" relative="1" as="geometry">
            <mxPoint x="360" y="620" as="sourcePoint" />
            <mxPoint x="530" y="620.8714463975695" as="targetPoint" />
          </mxGeometry>
        </mxCell>
        <mxCell id="vysxgyDkq2wraAgJu6BQ-30" value="Сохранить заказ" style="text;html=1;strokeColor=none;fillColor=none;align=center;verticalAlign=middle;whiteSpace=wrap;rounded=0;" vertex="1" parent="1">
          <mxGeometry x="414" y="575" width="40" height="20" as="geometry" />
        </mxCell>
        <mxCell id="vysxgyDkq2wraAgJu6BQ-31" value="" style="endArrow=classic;html=1;" edge="1" parent="1">
          <mxGeometry width="50" height="50" relative="1" as="geometry">
            <mxPoint x="530" y="671" as="sourcePoint" />
            <mxPoint x="650" y="670.8714463975695" as="targetPoint" />
          </mxGeometry>
        </mxCell>
        <mxCell id="vysxgyDkq2wraAgJu6BQ-32" value="Сохранить новый заказ" style="text;html=1;strokeColor=none;fillColor=none;align=center;verticalAlign=middle;whiteSpace=wrap;rounded=0;" vertex="1" parent="1">
          <mxGeometry x="570" y="650" width="40" height="20" as="geometry" />
        </mxCell>
        <mxCell id="vysxgyDkq2wraAgJu6BQ-33" value="" style="endArrow=classic;html=1;" edge="1" parent="1">
          <mxGeometry width="50" height="50" relative="1" as="geometry">
            <mxPoint x="530" y="771" as="sourcePoint" />
            <mxPoint x="640" y="770.62744140625" as="targetPoint" />
          </mxGeometry>
        </mxCell>
        <mxCell id="vysxgyDkq2wraAgJu6BQ-34" value="Ввести номер заказа заказчика и число товаров" style="text;html=1;strokeColor=none;fillColor=none;align=center;verticalAlign=middle;whiteSpace=wrap;rounded=0;" vertex="1" parent="1">
          <mxGeometry x="440" y="740" width="280" height="20" as="geometry" />
        </mxCell>
        <mxCell id="vysxgyDkq2wraAgJu6BQ-35" value="" style="endArrow=classic;html=1;" edge="1" parent="1">
          <mxGeometry width="50" height="50" relative="1" as="geometry">
            <mxPoint x="540" y="900" as="sourcePoint" />
            <mxPoint x="739.686328125" y="901.56865234375" as="targetPoint" />
          </mxGeometry>
        </mxCell>
        <mxCell id="vysxgyDkq2wraAgJu6BQ-36" value="Сохранить заказ" style="text;html=1;strokeColor=none;fillColor=none;align=center;verticalAlign=middle;whiteSpace=wrap;rounded=0;" vertex="1" parent="1">
          <mxGeometry x="550" y="870" width="170" height="20" as="geometry" />
        </mxCell>
        <mxCell id="vysxgyDkq2wraAgJu6BQ-37" value="" style="endArrow=classic;html=1;" edge="1" parent="1">
          <mxGeometry width="50" height="50" relative="1" as="geometry">
            <mxPoint x="650" y="1040" as="sourcePoint" />
            <mxPoint x="740" y="1031.56865234375" as="targetPoint" />
          </mxGeometry>
        </mxCell>
        <mxCell id="vysxgyDkq2wraAgJu6BQ-38" value="Инфа о заказе" style="text;html=1;strokeColor=none;fillColor=none;align=center;verticalAlign=middle;whiteSpace=wrap;rounded=0;" vertex="1" parent="1">
          <mxGeometry x="670" y="1010" width="40" height="20" as="geometry" />
        </mxCell>
        <mxCell id="vysxgyDkq2wraAgJu6BQ-39" value="" style="endArrow=classic;html=1;" edge="1" parent="1">
          <mxGeometry width="50" height="50" relative="1" as="geometry">
            <mxPoint x="820" y="1160" as="sourcePoint" />
            <mxPoint x="750" y="1171.25498046875" as="targetPoint" />
          </mxGeometry>
        </mxCell>
        <mxCell id="vysxgyDkq2wraAgJu6BQ-40" value="Сохранить инфу" style="text;html=1;strokeColor=none;fillColor=none;align=center;verticalAlign=middle;whiteSpace=wrap;rounded=0;" vertex="1" parent="1">
          <mxGeometry x="770" y="1130" width="40" height="20" as="geometry" />
        </mxCell>
      </root>
    </mxGraphModel>
  </diagram>
</mxfile>
